<svg width="150" height="37" viewBox="0 0 150 37" fill="none" xmlns="http://www.w3.org/2000/svg">
<path d="M70.9907 5.18197C70.9907 3.27407 72.5374 1.72741 74.4453 1.72741H85.3148C86.0968 1.72741 86.8468 1.41675 87.3998 0.86377V2.59105C87.3998 4.49895 85.8531 6.04561 83.9452 6.04561H73.0757C72.2937 6.04561 71.5437 6.35627 70.9907 6.90925V5.18197Z" fill="#21ACA1"/>
<path d="M81.3543 7.77289V28.5002H77.0362V7.77289H81.3543Z" fill="#21ACA1"/>
<path d="M88.5096 7.72878L90.3995 22.2885L86.1172 22.8444L84.2274 8.28462L88.5096 7.72878Z" fill="#252525"/>
<path d="M47.9115 7.52974L50.147 22.0404L45.8792 22.6979L43.6437 8.18723L47.9115 7.52974Z" fill="#21ACA1"/>
<path d="M25.0454 28.5002C25.0454 32.1253 22.1068 35.0639 18.4818 35.0639H10.5035C4.70257 35.0639 0 30.3613 0 24.5604C0 22.8266 0.429158 21.1198 1.24919 19.5923L4.31817 13.8754L4.34881 13.8184L8.15342 15.8608L5.0538 21.6348C4.5709 22.5343 4.31817 23.5394 4.31817 24.5604C4.31817 27.9764 7.08743 30.7457 10.5035 30.7457H17.9924C19.5028 30.7457 20.7272 29.5213 20.7272 28.0109V13.8184H25.0454V24.182H33.6817C35.5896 24.182 37.1363 22.6354 37.1363 20.7275V13.8184H41.4544V21.5911C41.4544 25.4069 38.3611 28.5002 34.5454 28.5002H25.0454Z" fill="#21ACA1"/>
<path d="M44.7363 28.5002V24.182H52.3362V7.77289H56.6544L56.7408 24.182H65.2907C67.1986 24.182 68.7453 22.6354 68.7453 20.7275V13.8184H73.0635V21.5911C73.0635 25.4069 69.9702 28.5002 66.1544 28.5002H44.7363Z" fill="#21ACA1"/>
<path d="M113.482 21.5659C113.482 25.3817 110.388 28.5002 106.572 28.5002H85.1543V24.182H92.7543V7.77289H97.0725L97.1588 24.182H106.372C107.914 24.182 109.163 22.9322 109.163 21.3905C109.163 19.6795 107.638 18.3712 105.947 18.6313L97.9361 19.8638V15.5456L105.809 14.6708C109.902 14.2161 113.482 17.448 113.482 21.5659Z" fill="#252525"/>
<path d="M13.6456 10.5369C15.0765 10.5369 16.2365 11.6969 16.2365 13.1278C16.2365 14.5587 15.0765 15.7187 13.6456 15.7187C12.2147 15.7187 11.0547 14.5587 11.0547 13.1278C11.0547 11.6969 12.2147 10.5369 13.6456 10.5369Z" fill="#21ACA1"/>
<path d="M28.6732 29.8821C30.1041 29.8821 31.2641 31.0421 31.2641 32.473C31.2641 33.9039 30.1041 35.0639 28.6732 35.0639C27.2423 35.0639 26.0823 33.9039 26.0823 32.473C26.0823 31.0421 27.2423 29.8821 28.6732 29.8821Z" fill="#21ACA1"/>
<path d="M34.7176 29.8821C36.1485 29.8821 37.3085 31.0421 37.3085 32.473C37.3085 33.9039 36.1485 35.0639 34.7176 35.0639C33.2867 35.0639 32.1267 33.9039 32.1267 32.473C32.1267 31.0421 33.2867 29.8821 34.7176 29.8821Z" fill="#21ACA1"/>
<path d="M62.8722 10.5369C64.3031 10.5369 65.4631 11.6969 65.4631 13.1278C65.4631 14.5587 64.3031 15.7187 62.8722 15.7187C61.4412 15.7187 60.2812 14.5587 60.2812 13.1278C60.2812 11.6969 61.4412 10.5369 62.8722 10.5369Z" fill="#21ACA1"/>
<rect width="17.4611" height="17.5522" rx="8.73056" transform="matrix(0.866035 0.499984 -0.866035 0.499984 134.412 19.1123)" fill="url(#paint0_linear_901_186)"/>
<rect y="0.499984" width="16.4611" height="16.5522" rx="8.23056" transform="matrix(0.866035 0.499984 -0.866035 0.499984 134.845 19.3623)" stroke="#0F4F49" stroke-opacity="0.25"/>
<rect width="6.04077" height="6.04077" transform="matrix(0.866035 0.499984 -0.866035 0.499984 144.769 0)" fill="url(#paint1_linear_901_186)"/>
<rect y="0.249992" width="5.54077" height="5.54077" transform="matrix(0.866035 0.499984 -0.866035 0.499984 144.985 0.125)" stroke="#0F4F49" stroke-opacity="0.25" stroke-width="0.5"/>
<rect width="6.04077" height="24.5532" transform="matrix(0.866035 0.499984 0 1 139.537 3.02026)" fill="url(#paint2_linear_901_186)"/>
<rect x="0.216509" y="0.374996" width="5.54077" height="24.0532" transform="matrix(0.866035 0.499984 0 1 139.566 2.91201)" stroke="#0F4F49" stroke-opacity="0.25" stroke-width="0.5"/>
<rect width="6.04077" height="24.5525" transform="matrix(0.866035 -0.499984 0 1 144.769 6.04004)" fill="url(#paint3_linear_901_186)"/>
<rect x="0.216509" y="0.125004" width="5.54077" height="24.0525" transform="matrix(0.866035 -0.499984 0 1 144.798 6.14829)" stroke="#0F4F49" stroke-opacity="0.25" stroke-width="0.5"/>
<rect width="6.04077" height="6.04077" transform="matrix(0.866035 0.499984 -0.866035 0.499984 134.331 6.05347)" fill="url(#paint4_linear_901_186)"/>
<rect y="0.249992" width="5.54077" height="5.54077" transform="matrix(0.866035 0.499984 -0.866035 0.499984 134.548 6.17847)" stroke="#0F4F49" stroke-opacity="0.25" stroke-width="0.5"/>
<rect width="6.04077" height="18.4967" transform="matrix(0.866035 0.499984 0 1 129.1 9.07373)" fill="url(#paint5_linear_901_186)"/>
<rect x="0.216509" y="0.374996" width="5.54077" height="17.9967" transform="matrix(0.866035 0.499984 0 1 129.129 8.96548)" stroke="#0F4F49" stroke-opacity="0.25" stroke-width="0.5"/>
<rect width="6.04077" height="18.499" transform="matrix(0.866035 -0.499984 0 1 134.331 12.0945)" fill="url(#paint6_linear_901_186)"/>
<rect x="0.216509" y="0.125004" width="5.54077" height="17.999" transform="matrix(0.866035 -0.499984 0 1 134.36 12.2027)" stroke="#0F4F49" stroke-opacity="0.25" stroke-width="0.5"/>
<rect width="6.04077" height="6.04077" transform="matrix(0.866035 0.499984 -0.866035 0.499984 123.895 13.0752)" fill="url(#paint7_linear_901_186)"/>
<rect y="0.249992" width="5.54077" height="5.54077" transform="matrix(0.866035 0.499984 -0.866035 0.499984 124.112 13.2002)" stroke="#0F4F49" stroke-opacity="0.25" stroke-width="0.5"/>
<rect width="6.04077" height="11.477" transform="matrix(0.866035 0.499984 0 1 118.663 16.0955)" fill="url(#paint8_linear_901_186)"/>
<rect x="0.216509" y="0.374996" width="5.54077" height="10.977" transform="matrix(0.866035 0.499984 0 1 118.692 15.9872)" stroke="#0F4F49" stroke-opacity="0.25" stroke-width="0.5"/>
<rect width="6.04077" height="11.4765" transform="matrix(0.866035 -0.499984 0 1 123.895 19.1157)" fill="url(#paint9_linear_901_186)"/>
<rect x="0.216509" y="0.125004" width="5.54077" height="10.9765" transform="matrix(0.866035 -0.499984 0 1 123.924 19.224)" stroke="#0F4F49" stroke-opacity="0.25" stroke-width="0.5"/>
<defs>
<linearGradient id="paint0_linear_901_186" x1="6.17902" y1="6.21546" x2="17.5632" y2="17.5742" gradientUnits="userSpaceOnUse">
<stop stop-color="#1B7770"/>
<stop offset="1" stop-color="#33DDCF"/>
</linearGradient>
<linearGradient id="paint1_linear_901_186" x1="6.19839" y1="4.54484" x2="1.19127" y2="-3.8866" gradientUnits="userSpaceOnUse">
<stop stop-color="#22B2A6"/>
<stop offset="1" stop-color="#0F4C47"/>
</linearGradient>
<linearGradient id="paint2_linear_901_186" x1="3.02038" y1="0" x2="3.02038" y2="24.5532" gradientUnits="userSpaceOnUse">
<stop stop-color="#1E9288"/>
<stop offset="1" stop-color="#145A54"/>
</linearGradient>
<linearGradient id="paint3_linear_901_186" x1="3.02038" y1="0" x2="3.02038" y2="24.5525" gradientUnits="userSpaceOnUse">
<stop stop-color="#249E94"/>
<stop offset="1" stop-color="#145A54"/>
</linearGradient>
<linearGradient id="paint4_linear_901_186" x1="6.19839" y1="4.54484" x2="1.19127" y2="-3.8866" gradientUnits="userSpaceOnUse">
<stop stop-color="#22B2A6"/>
<stop offset="1" stop-color="#0F4C47"/>
</linearGradient>
<linearGradient id="paint5_linear_901_186" x1="3.02038" y1="0" x2="3.02038" y2="18.4967" gradientUnits="userSpaceOnUse">
<stop stop-color="#1E9288"/>
<stop offset="1" stop-color="#145A54"/>
</linearGradient>
<linearGradient id="paint6_linear_901_186" x1="3.02038" y1="0" x2="3.02038" y2="18.499" gradientUnits="userSpaceOnUse">
<stop stop-color="#249E94"/>
<stop offset="1" stop-color="#145A54"/>
</linearGradient>
<linearGradient id="paint7_linear_901_186" x1="6.19839" y1="4.54484" x2="1.19127" y2="-3.8866" gradientUnits="userSpaceOnUse">
<stop stop-color="#22B2A6"/>
<stop offset="1" stop-color="#0F4C47"/>
</linearGradient>
<linearGradient id="paint8_linear_901_186" x1="3.02038" y1="0" x2="3.02038" y2="11.477" gradientUnits="userSpaceOnUse">
<stop stop-color="#1E9288"/>
<stop offset="1" stop-color="#145A54"/>
</linearGradient>
<linearGradient id="paint9_linear_901_186" x1="3.02038" y1="0" x2="3.02038" y2="11.4765" gradientUnits="userSpaceOnUse">
<stop stop-color="#249E94"/>
<stop offset="1" stop-color="#145A54"/>
</linearGradient>
</defs>
</svg>
