<svg width="120" height="140" viewBox="0 0 120 140" fill="none" xmlns="http://www.w3.org/2000/svg">
<rect width="48.4232" height="48.5666" transform="matrix(0.866025 0.5 -0.866025 0.5 60.0541 91.333)" fill="#DDB851"/>
<rect width="23.0537" height="23.0537" transform="matrix(0.866025 0.5 -0.866025 0.5 100.035 0)" fill="#F5C746"/>
<rect width="23.0537" height="93.7066" transform="matrix(0.866025 0.5 0 1 80.0698 11.5271)" fill="#E8C153"/>
<rect width="23.0537" height="93.6907" transform="matrix(0.866025 -0.5 0 1 100.035 23.0537)" fill="#F9D368"/>
<rect width="23.0537" height="23.0537" transform="matrix(0.866025 0.5 -0.866025 0.5 60.0209 23.1023)" fill="#F5C746"/>
<rect width="23.0537" height="70.5923" transform="matrix(0.866025 0.5 0 1 40.0558 34.6292)" fill="#E8C153"/>
<rect width="23.0537" height="70.6012" transform="matrix(0.866025 -0.5 0 1 60.0209 46.156)" fill="#F9D368"/>
<rect width="23.0537" height="23.0537" transform="matrix(0.866025 0.5 -0.866025 0.5 19.9651 49.9021)" fill="#F5C746"/>
<rect width="23.0537" height="43.8018" transform="matrix(0.866025 0.5 0 1 0 61.4292)" fill="#E8C153"/>
<rect width="23.0537" height="43.7999" transform="matrix(0.866025 -0.5 0 1 19.9651 72.9561)" fill="#F9D368"/>
</svg>
