<svg width="610" height="139" viewBox="0 0 610 139" fill="none" xmlns="http://www.w3.org/2000/svg">
<g clip-path="url(#clip0_651_54)">
<rect width="68.6655" height="69.0236" rx="17" transform="matrix(0.866036 0.499981 -0.866036 0.499981 69.1138 75.1581)" fill="url(#paint0_linear_651_54)"/>
<rect y="0.499981" width="67.6655" height="68.0236" rx="16.5" transform="matrix(0.866036 0.499981 -0.866036 0.499981 69.5468 75.4081)" stroke="#0F4F49" stroke-opacity="0.25"/>
<rect width="23.7552" height="23.7552" transform="matrix(0.866036 0.499981 -0.866036 0.499981 109.841 0)" fill="url(#paint1_linear_651_54)"/>
<rect y="0.24999" width="23.2552" height="23.2552" transform="matrix(0.866036 0.499981 -0.866036 0.499981 110.058 0.125)" stroke="#0F4F49" stroke-opacity="0.25" stroke-width="0.5"/>
<rect width="23.7552" height="96.5542" transform="matrix(0.866036 0.499981 0 1 89.2684 11.8773)" fill="url(#paint2_linear_651_54)"/>
<rect x="0.216509" y="0.374995" width="23.2552" height="96.0542" transform="matrix(0.866036 0.499981 0 1 89.2974 11.7691)" stroke="#0F4F49" stroke-opacity="0.25" stroke-width="0.5"/>
<rect width="23.7552" height="96.5517" transform="matrix(0.866036 -0.499981 0 1 109.841 23.7544)" fill="url(#paint3_linear_651_54)"/>
<rect x="0.216509" y="0.125005" width="23.2552" height="96.0517" transform="matrix(0.866036 -0.499981 0 1 109.87 23.8626)" stroke="#0F4F49" stroke-opacity="0.25" stroke-width="0.5"/>
<rect width="23.7552" height="23.7552" transform="matrix(0.866036 0.499981 -0.866036 0.499981 68.7983 23.8046)" fill="url(#paint4_linear_651_54)"/>
<rect y="0.24999" width="23.2552" height="23.2552" transform="matrix(0.866036 0.499981 -0.866036 0.499981 69.0148 23.9296)" stroke="#0F4F49" stroke-opacity="0.25" stroke-width="0.5"/>
<rect width="23.7552" height="72.7375" transform="matrix(0.866036 0.499981 0 1 48.2256 35.6816)" fill="url(#paint5_linear_651_54)"/>
<rect x="0.216509" y="0.374995" width="23.2552" height="72.2375" transform="matrix(0.866036 0.499981 0 1 48.2546 35.5734)" stroke="#0F4F49" stroke-opacity="0.25" stroke-width="0.5"/>
<rect width="23.7552" height="72.7466" transform="matrix(0.866036 -0.499981 0 1 68.7983 47.5587)" fill="url(#paint6_linear_651_54)"/>
<rect x="0.216509" y="0.125005" width="23.2552" height="72.2466" transform="matrix(0.866036 -0.499981 0 1 68.8273 47.667)" stroke="#0F4F49" stroke-opacity="0.25" stroke-width="0.5"/>
<rect width="23.7552" height="23.7552" transform="matrix(0.866036 0.499981 -0.866036 0.499981 27.7559 51.4186)" fill="url(#paint7_linear_651_54)"/>
<rect y="0.24999" width="23.2552" height="23.2552" transform="matrix(0.866036 0.499981 -0.866036 0.499981 27.9724 51.5436)" stroke="#0F4F49" stroke-opacity="0.25" stroke-width="0.5"/>
<rect width="23.7552" height="45.1329" transform="matrix(0.866036 0.499981 0 1 7.18311 63.2959)" fill="url(#paint8_linear_651_54)"/>
<rect x="0.216509" y="0.374995" width="23.2552" height="44.6329" transform="matrix(0.866036 0.499981 0 1 7.21211 63.1876)" stroke="#0F4F49" stroke-opacity="0.25" stroke-width="0.5"/>
<rect width="23.7552" height="45.1309" transform="matrix(0.866036 -0.499981 0 1 27.7559 75.173)" fill="url(#paint9_linear_651_54)"/>
<rect x="0.216509" y="0.125005" width="23.2552" height="44.6309" transform="matrix(0.866036 -0.499981 0 1 27.7849 75.2812)" stroke="#0F4F49" stroke-opacity="0.25" stroke-width="0.5"/>
</g>
<path d="M154.281 54.4375H160.609V36.3438H170.5V54.4375H185.453V64.3281H170.5V89.2188C170.5 90.2812 170.906 91.2031 171.719 91.9844C172.562 92.7344 173.562 93.1094 174.719 93.1094H185.453V103H174.578C172.016 103 169.672 102.391 167.547 101.172C165.453 99.9219 163.766 98.2656 162.484 96.2031C161.234 94.1094 160.609 91.7969 160.609 89.2656V64.3281H154.281V54.4375ZM193.938 71.875C193.938 68.6562 194.719 65.7344 196.281 63.1094C197.875 60.4844 200 58.3906 202.656 56.8281C205.312 55.2344 208.25 54.4375 211.469 54.4375H238.562V103H228.672V64.3281H211.469C209.375 64.3281 207.578 65.0781 206.078 66.5781C204.578 68.0469 203.828 69.8438 203.828 71.9688V85.375C203.828 87.5 204.578 89.3281 206.078 90.8594C207.578 92.3594 209.375 93.1094 211.469 93.1094H223.047V103H211.469C208.25 103 205.312 102.219 202.656 100.656C200 99.0625 197.875 96.9375 196.281 94.2812C194.719 91.625 193.938 88.6875 193.938 85.4688V71.875ZM249.812 36.3438H259.703V103H249.812V36.3438ZM270.531 71.875C270.531 68.6562 271.312 65.7344 272.875 63.1094C274.469 60.4844 276.594 58.3906 279.25 56.8281C281.906 55.2344 284.844 54.4375 288.062 54.4375H315.156V103H305.266V64.3281H288.062C285.969 64.3281 284.172 65.0781 282.672 66.5781C281.172 68.0469 280.422 69.8438 280.422 71.9688V85.375C280.422 87.5 281.172 89.3281 282.672 90.8594C284.172 92.3594 285.969 93.1094 288.062 93.1094H299.641V103H288.062C284.844 103 281.906 102.219 279.25 100.656C276.594 99.0625 274.469 96.9375 272.875 94.2812C271.312 91.625 270.531 88.6875 270.531 85.4688V71.875Z" fill="#151515"/>
<path d="M326.172 97.375C326.172 95.6875 326.766 94.25 327.953 93.0625C329.141 91.875 330.578 91.2812 332.266 91.2812C333.984 91.2812 335.422 91.875 336.578 93.0625C337.766 94.2188 338.359 95.6562 338.359 97.375C338.359 99.0938 337.766 100.547 336.578 101.734C335.422 102.891 333.984 103.469 332.266 103.469C330.578 103.469 329.141 102.875 327.953 101.688C326.766 100.5 326.172 99.0625 326.172 97.375ZM348.906 71.9688C348.906 68.75 349.688 65.8125 351.25 63.1562C352.844 60.5 354.969 58.3906 357.625 56.8281C360.281 55.2344 363.219 54.4375 366.438 54.4375H377.031C380.25 54.4375 383.188 55.2344 385.844 56.8281C388.5 58.3906 390.609 60.5 392.172 63.1562C393.766 65.8125 394.562 68.75 394.562 71.9688V85.4688C394.562 88.6875 393.766 91.625 392.172 94.2812C390.609 96.9375 388.5 99.0625 385.844 100.656C383.188 102.219 380.25 103 377.031 103H366.438C363.219 103 360.281 102.219 357.625 100.656C354.969 99.0625 352.844 96.9375 351.25 94.2812C349.688 91.625 348.906 88.6875 348.906 85.4688V71.9688ZM358.797 85.375C358.797 87.5 359.547 89.3281 361.047 90.8594C362.547 92.3594 364.344 93.1094 366.438 93.1094H377.031C379.156 93.1094 380.953 92.3594 382.422 90.8594C383.922 89.3281 384.672 87.5 384.672 85.375V72.0625C384.672 69.9375 383.922 68.125 382.422 66.625C380.953 65.0938 379.156 64.3281 377.031 64.3281H366.438C364.344 64.3281 362.547 65.0938 361.047 66.625C359.547 68.125 358.797 69.9375 358.797 72.0625V85.375ZM405.344 64.2812C405.344 61.5625 406.312 59.25 408.25 57.3438C410.219 55.4062 412.578 54.4375 415.328 54.4375H432.438C435.656 54.4375 438.594 55.2344 441.25 56.8281C443.906 58.3906 446.016 60.5 447.578 63.1562C449.172 65.8125 449.969 68.75 449.969 71.9688V103H440.078V72.1094C440.078 69.9219 439.328 68.0625 437.828 66.5312C436.359 65 434.562 64.2344 432.438 64.2344H415.234V103H405.344V64.2812ZM461.219 36.3438H471.109V103H461.219V36.3438ZM481.281 41.2188C481.281 39.5312 481.875 38.0938 483.062 36.9062C484.25 35.7188 485.688 35.125 487.375 35.125C489.062 35.125 490.5 35.7188 491.688 36.9062C492.875 38.0938 493.469 39.5312 493.469 41.2188C493.469 42.9062 492.875 44.3438 491.688 45.5312C490.5 46.7188 489.062 47.3125 487.375 47.3125C485.688 47.3125 484.25 46.7188 483.062 45.5312C481.875 44.3438 481.281 42.9062 481.281 41.2188ZM482.406 54.4375H492.344V103H482.406V54.4375ZM503.594 64.2812C503.594 61.5625 504.562 59.25 506.5 57.3438C508.469 55.4062 510.828 54.4375 513.578 54.4375H530.688C533.906 54.4375 536.844 55.2344 539.5 56.8281C542.156 58.3906 544.266 60.5 545.828 63.1562C547.422 65.8125 548.219 68.75 548.219 71.9688V103H538.328V72.1094C538.328 69.9219 537.578 68.0625 536.078 66.5312C534.609 65 532.812 64.2344 530.688 64.2344H513.484V103H503.594V64.2812ZM559.469 64.4688C559.469 61.6875 560.484 59.3281 562.516 57.3906C564.547 55.4219 566.984 54.4375 569.828 54.4375H590.078C592.672 54.4375 595.016 55.0781 597.109 56.3594C599.234 57.6094 600.922 59.3125 602.172 61.4688C603.453 63.5938 604.094 65.9531 604.094 68.5469V69.9062C604.094 72.4688 603.453 74.8125 602.172 76.9375C600.922 79.0312 599.234 80.7188 597.109 82C595.016 83.25 592.672 83.875 590.078 83.875H574.984V74.0312H590.172C591.297 74.0312 592.25 73.625 593.031 72.8125C593.844 72 594.25 71.0156 594.25 69.8594V68.5469C594.25 67.3594 593.844 66.3594 593.031 65.5469C592.25 64.7344 591.297 64.3281 590.172 64.3281H569.359V89.2656C569.359 90.3281 569.719 91.2344 570.438 91.9844C571.156 92.7344 572.031 93.1094 573.062 93.1094H600.672V103H573.062C570.562 103 568.281 102.391 566.219 101.172C564.156 99.9219 562.516 98.2656 561.297 96.2031C560.078 94.1094 559.469 91.8125 559.469 89.3125V64.4688Z" fill="#21ACA1"/>
<defs>
<linearGradient id="paint0_linear_651_54" x1="24.2989" y1="24.4422" x2="69.067" y2="69.11" gradientUnits="userSpaceOnUse">
<stop stop-color="#1B7770"/>
<stop offset="1" stop-color="#33DDCF"/>
</linearGradient>
<linearGradient id="paint1_linear_651_54" x1="24.375" y1="17.8725" x2="4.68465" y2="-15.284" gradientUnits="userSpaceOnUse">
<stop stop-color="#22B2A6"/>
<stop offset="1" stop-color="#0F4C47"/>
</linearGradient>
<linearGradient id="paint2_linear_651_54" x1="11.8776" y1="0" x2="11.8776" y2="96.5542" gradientUnits="userSpaceOnUse">
<stop stop-color="#1E9288"/>
<stop offset="1" stop-color="#145A54"/>
</linearGradient>
<linearGradient id="paint3_linear_651_54" x1="11.8776" y1="0" x2="11.8776" y2="96.5517" gradientUnits="userSpaceOnUse">
<stop stop-color="#249E94"/>
<stop offset="1" stop-color="#145A54"/>
</linearGradient>
<linearGradient id="paint4_linear_651_54" x1="24.375" y1="17.8725" x2="4.68465" y2="-15.284" gradientUnits="userSpaceOnUse">
<stop stop-color="#22B2A6"/>
<stop offset="1" stop-color="#0F4C47"/>
</linearGradient>
<linearGradient id="paint5_linear_651_54" x1="11.8776" y1="0" x2="11.8776" y2="72.7375" gradientUnits="userSpaceOnUse">
<stop stop-color="#1E9288"/>
<stop offset="1" stop-color="#145A54"/>
</linearGradient>
<linearGradient id="paint6_linear_651_54" x1="11.8776" y1="0" x2="11.8776" y2="72.7466" gradientUnits="userSpaceOnUse">
<stop stop-color="#249E94"/>
<stop offset="1" stop-color="#145A54"/>
</linearGradient>
<linearGradient id="paint7_linear_651_54" x1="24.375" y1="17.8725" x2="4.68465" y2="-15.284" gradientUnits="userSpaceOnUse">
<stop stop-color="#22B2A6"/>
<stop offset="1" stop-color="#0F4C47"/>
</linearGradient>
<linearGradient id="paint8_linear_651_54" x1="11.8776" y1="0" x2="11.8776" y2="45.1329" gradientUnits="userSpaceOnUse">
<stop stop-color="#1E9288"/>
<stop offset="1" stop-color="#145A54"/>
</linearGradient>
<linearGradient id="paint9_linear_651_54" x1="11.8776" y1="0" x2="11.8776" y2="45.1309" gradientUnits="userSpaceOnUse">
<stop stop-color="#249E94"/>
<stop offset="1" stop-color="#145A54"/>
</linearGradient>
<clipPath id="clip0_651_54">
<rect width="139" height="139" fill="white"/>
</clipPath>
</defs>
</svg>
