<svg width="100" height="100" viewBox="0 0 100 100" fill="none" xmlns="http://www.w3.org/2000/svg">
<g clip-path="url(#clip0_662_104)">
<rect width="49.3996" height="49.6573" rx="17" transform="matrix(0.866036 0.499981 -0.866036 0.499981 49.7219 54.0706)" fill="url(#paint0_linear_662_104)"/>
<rect y="0.499981" width="48.3996" height="48.6573" rx="16.5" transform="matrix(0.866036 0.499981 -0.866036 0.499981 50.1549 54.3206)" stroke="#0F4F49" stroke-opacity="0.25"/>
<rect width="17.0901" height="17.0901" transform="matrix(0.866036 0.499981 -0.866036 0.499981 79.0222 0)" fill="url(#paint1_linear_662_104)"/>
<rect y="0.24999" width="16.5901" height="16.5901" transform="matrix(0.866036 0.499981 -0.866036 0.499981 79.2387 0.125)" stroke="#0F4F49" stroke-opacity="0.25" stroke-width="0.5"/>
<rect width="17.0901" height="69.4635" transform="matrix(0.866036 0.499981 0 1 64.2217 8.5448)" fill="url(#paint2_linear_662_104)"/>
<rect x="0.216509" y="0.374995" width="16.5901" height="68.9635" transform="matrix(0.866036 0.499981 0 1 64.2507 8.43655)" stroke="#0F4F49" stroke-opacity="0.25" stroke-width="0.5"/>
<rect width="17.0901" height="69.4617" transform="matrix(0.866036 -0.499981 0 1 79.0222 17.0895)" fill="url(#paint3_linear_662_104)"/>
<rect x="0.216509" y="0.125005" width="16.5901" height="68.9617" transform="matrix(0.866036 -0.499981 0 1 79.0512 17.1977)" stroke="#0F4F49" stroke-opacity="0.25" stroke-width="0.5"/>
<rect width="17.0901" height="17.0901" transform="matrix(0.866036 0.499981 -0.866036 0.499981 49.4951 17.1256)" fill="url(#paint4_linear_662_104)"/>
<rect y="0.24999" width="16.5901" height="16.5901" transform="matrix(0.866036 0.499981 -0.866036 0.499981 49.7116 17.2506)" stroke="#0F4F49" stroke-opacity="0.25" stroke-width="0.5"/>
<rect width="17.0901" height="52.3291" transform="matrix(0.866036 0.499981 0 1 34.6943 25.6703)" fill="url(#paint5_linear_662_104)"/>
<rect x="0.216509" y="0.374995" width="16.5901" height="51.8291" transform="matrix(0.866036 0.499981 0 1 34.7233 25.562)" stroke="#0F4F49" stroke-opacity="0.25" stroke-width="0.5"/>
<rect width="17.0901" height="52.3357" transform="matrix(0.866036 -0.499981 0 1 49.4951 34.215)" fill="url(#paint6_linear_662_104)"/>
<rect x="0.216509" y="0.125005" width="16.5901" height="51.8357" transform="matrix(0.866036 -0.499981 0 1 49.5241 34.3232)" stroke="#0F4F49" stroke-opacity="0.25" stroke-width="0.5"/>
<rect width="17.0901" height="17.0901" transform="matrix(0.866036 0.499981 -0.866036 0.499981 19.968 36.9918)" fill="url(#paint7_linear_662_104)"/>
<rect y="0.24999" width="16.5901" height="16.5901" transform="matrix(0.866036 0.499981 -0.866036 0.499981 20.1845 37.1168)" stroke="#0F4F49" stroke-opacity="0.25" stroke-width="0.5"/>
<rect width="17.0901" height="32.4697" transform="matrix(0.866036 0.499981 0 1 5.16748 45.5366)" fill="url(#paint8_linear_662_104)"/>
<rect x="0.216509" y="0.374995" width="16.5901" height="31.9697" transform="matrix(0.866036 0.499981 0 1 5.19648 45.4284)" stroke="#0F4F49" stroke-opacity="0.25" stroke-width="0.5"/>
<rect width="17.0901" height="32.4683" transform="matrix(0.866036 -0.499981 0 1 19.968 54.0813)" fill="url(#paint9_linear_662_104)"/>
<rect x="0.216509" y="0.125005" width="16.5901" height="31.9683" transform="matrix(0.866036 -0.499981 0 1 19.997 54.1895)" stroke="#0F4F49" stroke-opacity="0.25" stroke-width="0.5"/>
</g>
<defs>
<linearGradient id="paint0_linear_662_104" x1="17.4812" y1="17.5843" x2="49.6885" y2="49.7194" gradientUnits="userSpaceOnUse">
<stop stop-color="#1B7770"/>
<stop offset="1" stop-color="#33DDCF"/>
</linearGradient>
<linearGradient id="paint1_linear_662_104" x1="17.536" y1="12.8579" x2="3.37025" y2="-10.9957" gradientUnits="userSpaceOnUse">
<stop stop-color="#22B2A6"/>
<stop offset="1" stop-color="#0F4C47"/>
</linearGradient>
<linearGradient id="paint2_linear_662_104" x1="8.54503" y1="0" x2="8.54503" y2="69.4635" gradientUnits="userSpaceOnUse">
<stop stop-color="#1E9288"/>
<stop offset="1" stop-color="#145A54"/>
</linearGradient>
<linearGradient id="paint3_linear_662_104" x1="8.54503" y1="0" x2="8.54503" y2="69.4617" gradientUnits="userSpaceOnUse">
<stop stop-color="#249E94"/>
<stop offset="1" stop-color="#145A54"/>
</linearGradient>
<linearGradient id="paint4_linear_662_104" x1="17.536" y1="12.8579" x2="3.37025" y2="-10.9957" gradientUnits="userSpaceOnUse">
<stop stop-color="#22B2A6"/>
<stop offset="1" stop-color="#0F4C47"/>
</linearGradient>
<linearGradient id="paint5_linear_662_104" x1="8.54503" y1="0" x2="8.54503" y2="52.3291" gradientUnits="userSpaceOnUse">
<stop stop-color="#1E9288"/>
<stop offset="1" stop-color="#145A54"/>
</linearGradient>
<linearGradient id="paint6_linear_662_104" x1="8.54503" y1="0" x2="8.54503" y2="52.3357" gradientUnits="userSpaceOnUse">
<stop stop-color="#249E94"/>
<stop offset="1" stop-color="#145A54"/>
</linearGradient>
<linearGradient id="paint7_linear_662_104" x1="17.536" y1="12.8579" x2="3.37025" y2="-10.9957" gradientUnits="userSpaceOnUse">
<stop stop-color="#22B2A6"/>
<stop offset="1" stop-color="#0F4C47"/>
</linearGradient>
<linearGradient id="paint8_linear_662_104" x1="8.54503" y1="0" x2="8.54503" y2="32.4697" gradientUnits="userSpaceOnUse">
<stop stop-color="#1E9288"/>
<stop offset="1" stop-color="#145A54"/>
</linearGradient>
<linearGradient id="paint9_linear_662_104" x1="8.54503" y1="0" x2="8.54503" y2="32.4683" gradientUnits="userSpaceOnUse">
<stop stop-color="#249E94"/>
<stop offset="1" stop-color="#145A54"/>
</linearGradient>
<clipPath id="clip0_662_104">
<rect width="100" height="100" fill="white"/>
</clipPath>
</defs>
</svg>
